<?xml version="1.0" encoding="UTF-8"?> <!-- Generator: Adobe Illustrator 16.0.0, SVG Export Plug-In . SVG Version: 6.00 Build 0) --> <svg xmlns="http://www.w3.org/2000/svg" xmlns:xlink="http://www.w3.org/1999/xlink" id="Layer_1" x="0px" y="0px" width="80px" height="80px" viewBox="0 0 80 80" xml:space="preserve"> <g display="none"> <path display="inline" fill="#010101" d="M26.112,23.069c-0.021,0.627,0.063,1.255,0.23,1.861c0.188,0.522,0.418,1.024,0.669,1.506 c0.083,0.146,0.146,0.313,0.146,0.48c-0.021,0.251-0.167,0.502-0.397,0.628l-1.317,0.878c-0.167,0.104-0.356,0.188-0.544,0.188 c-0.23-0.021-0.46-0.125-0.627-0.293c-0.272-0.293-0.544-0.627-0.753-0.982s-0.418-0.753-0.648-1.234 c-1.631,1.924-3.681,2.887-6.149,2.887c-1.757,0-3.158-0.502-4.183-1.506s-1.548-2.343-1.548-4.016 c0-1.778,0.627-3.222,1.903-4.309c1.276-1.088,2.97-1.632,5.124-1.632c0.732,0,1.485,0.063,2.217,0.168 c0.774,0.104,1.569,0.271,2.405,0.46v-1.527c0-1.589-0.334-2.697-0.983-3.346s-1.799-0.962-3.409-0.962 c-0.753,0-1.527,0.083-2.259,0.271c-0.774,0.188-1.527,0.418-2.259,0.711c-0.23,0.104-0.481,0.188-0.732,0.272 c-0.104,0.041-0.23,0.063-0.334,0.063c-0.293,0-0.439-0.209-0.439-0.648v-1.024c-0.021-0.252,0.042-0.502,0.146-0.732 c0.167-0.188,0.355-0.335,0.585-0.439c0.837-0.418,1.715-0.731,2.635-0.941c1.067-0.271,2.175-0.396,3.263-0.396 c2.489,0,4.309,0.564,5.479,1.693c1.171,1.13,1.736,2.845,1.736,5.146v6.776H26.112z M17.621,26.248 c0.732,0,1.464-0.126,2.154-0.377c0.774-0.271,1.443-0.731,1.987-1.338c0.334-0.377,0.585-0.837,0.711-1.339 c0.146-0.586,0.209-1.213,0.209-1.819v-0.879c-0.627-0.146-1.276-0.271-1.924-0.355c-0.648-0.083-1.317-0.125-1.966-0.125 c-1.401,0-2.426,0.271-3.116,0.836c-0.69,0.565-1.025,1.36-1.025,2.405c0,0.983,0.251,1.716,0.774,2.218 S16.659,26.248,17.621,26.248L17.621,26.248z M34.415,28.506c-0.272,0.021-0.565-0.042-0.795-0.209 c-0.209-0.23-0.376-0.502-0.439-0.815l-4.915-16.167c-0.104-0.272-0.167-0.544-0.188-0.837c-0.021-0.251,0.146-0.481,0.397-0.522 h2.175c0.397,0,0.669,0.063,0.816,0.209c0.146,0.146,0.292,0.418,0.418,0.815l3.493,13.846L38.64,10.98 c0.104-0.418,0.23-0.69,0.397-0.815c0.251-0.146,0.544-0.23,0.836-0.209h1.673c0.397,0,0.67,0.063,0.836,0.209 c0.21,0.229,0.356,0.502,0.398,0.815l3.305,14.013l3.617-14.013c0.063-0.313,0.209-0.586,0.419-0.815 c0.251-0.146,0.522-0.23,0.815-0.209h1.945c0.25-0.042,0.48,0.146,0.522,0.396v0.126c0,0.104-0.021,0.23-0.042,0.335 c-0.041,0.188-0.084,0.355-0.146,0.522l-5.04,16.167c-0.126,0.418-0.272,0.69-0.438,0.815c-0.23,0.146-0.523,0.23-0.795,0.209 h-1.799c-0.398,0-0.67-0.063-0.837-0.209c-0.209-0.229-0.355-0.522-0.397-0.836l-3.242-13.49L37.448,27.46 c-0.042,0.313-0.188,0.606-0.397,0.837c-0.251,0.167-0.544,0.229-0.836,0.209H34.415z M61.29,29.071 c-1.087,0-2.175-0.125-3.221-0.376s-1.861-0.523-2.405-0.837c-0.271-0.125-0.502-0.335-0.648-0.586 c-0.084-0.188-0.125-0.376-0.125-0.585V25.62c0-0.438,0.167-0.647,0.48-0.647c0.126,0,0.252,0.021,0.377,0.063 s0.313,0.125,0.522,0.209c0.732,0.335,1.506,0.564,2.301,0.732c0.815,0.167,1.652,0.251,2.489,0.251c1.317,0,2.342-0.23,3.053-0.69 c0.69-0.419,1.109-1.172,1.088-1.987c0.021-0.544-0.188-1.066-0.564-1.464s-1.088-0.753-2.113-1.088l-3.031-0.94 c-1.527-0.481-2.656-1.192-3.348-2.134C55.477,17.045,55.1,16,55.1,14.891c-0.021-0.815,0.167-1.61,0.564-2.321 c0.377-0.67,0.879-1.255,1.506-1.716c0.648-0.502,1.381-0.857,2.176-1.087c0.857-0.251,1.735-0.377,2.635-0.355 c0.46,0,0.941,0.021,1.401,0.083c0.481,0.063,0.92,0.146,1.359,0.23c0.438,0.084,0.815,0.209,1.192,0.335 c0.313,0.104,0.605,0.229,0.878,0.376c0.251,0.126,0.46,0.293,0.628,0.523c0.146,0.209,0.209,0.438,0.188,0.689v0.983 c0,0.439-0.167,0.669-0.48,0.669c-0.271-0.042-0.544-0.125-0.795-0.251c-1.255-0.564-2.635-0.836-4.016-0.815 c-1.192,0-2.133,0.188-2.781,0.586c-0.648,0.396-0.983,1.004-0.983,1.861c-0.021,0.564,0.209,1.108,0.628,1.484 c0.418,0.397,1.191,0.795,2.301,1.15l2.969,0.941c1.506,0.48,2.594,1.15,3.242,2.008c0.648,0.836,0.982,1.882,0.962,2.928 c0.021,0.837-0.167,1.673-0.544,2.426c-0.376,0.712-0.898,1.339-1.526,1.841c-0.69,0.544-1.485,0.941-2.321,1.171 C63.318,28.924,62.314,29.071,61.29,29.071L61.29,29.071z"></path> <path display="inline" fill="#F7981F" d="M65.243,39.235c-6.881,5.082-16.878,7.779-25.474,7.779 c-12.047,0-22.901-4.453-31.1-11.856c-0.648-0.586-0.063-1.38,0.711-0.92c8.868,5.144,19.806,8.261,31.121,8.261 c8.157-0.043,16.229-1.695,23.738-4.853C65.39,37.124,66.373,38.399,65.243,39.235L65.243,39.235z"></path> <path display="inline" fill="#F7981F" d="M68.108,35.974c-0.878-1.131-5.814-0.545-8.052-0.273 c-0.67,0.084-0.774-0.502-0.168-0.941c3.932-2.76,10.395-1.965,11.147-1.044c0.753,0.919-0.209,7.403-3.89,10.499 c-0.564,0.48-1.109,0.229-0.857-0.398C67.125,41.744,68.986,37.081,68.108,35.974z"></path> <path display="inline" fill="#010101" d="M37.516,62.737c-0.521-0.348-1.081-0.618-1.679-0.792 c-0.578-0.174-1.022-0.289-1.331-0.347c-1.062-0.27-1.929-0.502-2.585-0.676c-0.521-0.135-1.042-0.309-1.544-0.521 c-0.309-0.115-0.559-0.309-0.752-0.578c-0.135-0.251-0.213-0.521-0.193-0.812c-0.02-0.328,0.058-0.637,0.231-0.906 c0.155-0.232,0.347-0.444,0.598-0.599s0.541-0.27,0.83-0.328c0.289-0.058,0.598-0.097,0.907-0.097c0.424,0,0.849,0.039,1.273,0.116 c0.366,0.077,0.714,0.212,1.042,0.405c0.308,0.192,0.559,0.463,0.733,0.791c0.193,0.387,0.309,0.811,0.328,1.254h3.627 c0.019-0.867-0.174-1.736-0.56-2.508c-0.367-0.676-0.888-1.254-1.524-1.698c-0.656-0.463-1.389-0.791-2.18-0.965 c-0.849-0.193-1.698-0.289-2.566-0.289c-0.771,0-1.543,0.096-2.296,0.309c-0.733,0.212-1.428,0.521-2.045,0.965 c-0.599,0.425-1.101,0.983-1.467,1.62c-0.405,0.695-0.598,1.486-0.579,2.277c-0.02,0.694,0.135,1.369,0.443,1.987 c0.29,0.54,0.676,1.004,1.158,1.37c0.482,0.386,1.042,0.694,1.62,0.906c0.618,0.232,1.235,0.425,1.872,0.579 c0.618,0.174,1.235,0.348,1.833,0.482c0.56,0.135,1.1,0.29,1.621,0.502c0.425,0.174,0.83,0.404,1.158,0.714 c0.289,0.29,0.463,0.694,0.443,1.119c0.02,0.386-0.097,0.752-0.328,1.062c-0.212,0.27-0.501,0.501-0.83,0.656 c-0.348,0.173-0.714,0.27-1.081,0.327c-0.366,0.038-0.714,0.077-1.081,0.077c-0.482,0-0.965-0.058-1.428-0.174 c-0.444-0.096-0.849-0.289-1.216-0.54c-0.347-0.251-0.636-0.579-0.83-0.965c-0.212-0.463-0.328-0.964-0.309-1.523h-3.627 c-0.039,0.944,0.154,1.871,0.579,2.721c0.386,0.752,0.945,1.389,1.621,1.891c0.695,0.521,1.486,0.888,2.334,1.1 c0.907,0.231,1.814,0.347,2.74,0.347c1.042,0.02,2.064-0.115,3.068-0.404c0.81-0.232,1.563-0.618,2.219-1.139 c0.579-0.463,1.042-1.062,1.351-1.737c0.309-0.694,0.463-1.427,0.463-2.18c0-0.965-0.212-1.736-0.617-2.354 C38.596,63.605,38.094,63.122,37.516,62.737z"></path> <path display="inline" fill="#010101" d="M52.952,66.48c0.019-0.868-0.251-1.737-0.791-2.451c-0.541-0.694-1.313-1.157-2.162-1.331 v-0.058c0.733-0.193,1.352-0.637,1.756-1.273c0.387-0.638,0.6-1.39,0.579-2.143c0.021-0.693-0.154-1.389-0.502-1.986 c-0.328-0.56-0.771-1.062-1.292-1.448c-0.541-0.385-1.139-0.693-1.795-0.887c-0.655-0.193-1.33-0.29-2.006-0.29 c-0.791,0-1.583,0.135-2.335,0.425c-0.676,0.251-1.273,0.656-1.794,1.177c-0.521,0.521-0.907,1.158-1.177,1.833 c-0.29,0.753-0.445,1.544-0.464,2.354h3.223c-0.038-0.771,0.173-1.524,0.637-2.143c0.443-0.559,1.08-0.849,1.948-0.849 c0.599,0,1.178,0.193,1.641,0.579c0.482,0.367,0.714,0.927,0.714,1.641c0.019,0.405-0.097,0.81-0.348,1.138 c-0.231,0.289-0.54,0.521-0.888,0.656c-0.366,0.154-0.752,0.251-1.157,0.27c-0.387,0.039-0.791,0.039-1.178,0v2.374 c0.405,0,0.83,0.02,1.293,0.038c0.425,0.02,0.85,0.097,1.254,0.251c0.387,0.155,0.714,0.406,0.946,0.733 c0.251,0.328,0.366,0.811,0.366,1.447c0,0.81-0.271,1.467-0.791,1.93c-0.521,0.463-1.215,0.714-1.93,0.694 c-0.443,0-0.868-0.077-1.273-0.271c-0.347-0.153-0.637-0.404-0.887-0.694c-0.251-0.328-0.445-0.675-0.561-1.062 c-0.135-0.404-0.192-0.849-0.212-1.272h-3.222c-0.02,0.887,0.115,1.756,0.424,2.585c0.27,0.733,0.694,1.37,1.255,1.91 c0.559,0.521,1.233,0.926,1.968,1.177c0.829,0.271,1.697,0.425,2.566,0.405c0.791,0,1.582-0.135,2.335-0.366 c0.732-0.213,1.389-0.579,1.986-1.042c0.579-0.463,1.042-1.042,1.37-1.718C52.798,68.101,52.971,67.291,52.952,66.48z"></path> </g> <g> <path fill="#384850" d="M58.6,43.943c-1.196-1.896-2.06-3.981-2.555-6.167V22.696c-0.126-6.965-5.873-12.51-12.838-12.385 c-0.292,0.005-0.583,0.021-0.873,0.046c-8.848,0-14.214,3.918-16.402,11.979c-0.199,0.731,0.232,1.484,0.963,1.683 c0.023,0.006,0.047,0.012,0.071,0.017c2.783,0.613,5.595,1.08,8.426,1.399c0.626,0.041,1.2-0.349,1.393-0.946 c0.806-2.49,1.418-3.164,4.179-3.164c3.203,0,3.979,1.645,4.097,5.547c-15.144,0.836-21.919,5.07-21.919,13.647 c0,6.178,6.633,10.967,12.339,10.967c3.934,0.345,7.84-0.911,10.836-3.484c1.489,1.398,3.202,2.538,5.066,3.372 c0.174,0.076,0.36,0.112,0.549,0.112c0.364,0.002,0.713-0.143,0.971-0.399l5.484-5.484C58.825,45.161,58.913,44.481,58.6,43.943z M44.668,43.559c-1.301,1.455-3.127,2.334-5.076,2.443c-1.25,0-5.336-0.493-5.484-6.821c-0.014-1.304,0.51-2.555,1.448-3.46 c3.112-2.393,6.97-3.607,10.891-3.428c0.733,0,1.339,0.577,1.371,1.311C48.213,37.217,47.069,40.83,44.668,43.559L44.668,43.559z"></path> <g> <path fill="#FDC113" d="M71.474,54.276c-0.387-0.1-9.49-2.441-13.658,1.726c-0.526,0.545-0.511,1.413,0.034,1.94 c0.53,0.513,1.373,0.513,1.904,0c2.194-2.194,7.204-1.778,9.939-1.257c-0.235,3.037-1.157,7.832-3.173,8.604 c-0.71,0.261-1.075,1.048-0.814,1.759c0.26,0.71,1.048,1.076,1.758,0.816c0.012-0.005,0.024-0.01,0.036-0.015 c4.612-1.767,4.972-11.151,4.996-12.227C72.507,54.993,72.085,54.436,71.474,54.276z"></path> <path fill="#FDC113" d="M67.013,61.084c0-1.516-1.229-2.742-2.742-2.742c-0.56,0.002-1.103,0.179-1.555,0.507 c-18.462,7.34-34.64,6.005-54.006-4.455c-0.659-0.373-1.496-0.14-1.868,0.519c-0.311,0.552-0.205,1.243,0.256,1.675 c9.616,9.474,20.271,14.218,31.859,14.218c9.006-0.233,17.822-2.633,25.703-6.996C66.015,63.614,67.018,62.452,67.013,61.084z"></path> </g> </g> </svg> 