<?xml version="1.0" encoding="UTF-8"?> <svg xmlns="http://www.w3.org/2000/svg" height="512px" viewBox="0 0 512 512" width="512px" class=""><g><path d="m325.332031 512h-288c-20.585937 0-37.332031-16.746094-37.332031-37.332031v-288c0-20.589844 16.746094-37.335938 37.332031-37.335938h288c20.589844 0 37.335938 16.746094 37.335938 37.335938v288c0 20.585937-16.746094 37.332031-37.335938 37.332031zm-288-330.667969c-2.941406 0-5.332031 2.390625-5.332031 5.335938v288c0 2.941406 2.390625 5.332031 5.332031 5.332031h288c2.945313 0 5.335938-2.390625 5.335938-5.332031v-288c0-2.945313-2.390625-5.335938-5.335938-5.335938zm0 0" data-original="#000000" class="active-path" data-old_color="#FCF5F5" fill="#FFFEFE"></path><path d="m496 96c-8.832031 0-16-7.167969-16-16v-21.332031c0-14.699219-11.96875-26.667969-26.667969-26.667969h-21.332031c-8.832031 0-16-7.167969-16-16s7.167969-16 16-16h21.332031c32.363281 0 58.667969 26.304688 58.667969 58.667969v21.332031c0 8.832031-7.167969 16-16 16zm0 0" data-original="#000000" class="active-path" data-old_color="#FCF5F5" fill="#FFFEFE"></path><path d="m101.332031 96c-8.832031 0-16-7.167969-16-16v-21.332031c0-32.363281 26.304688-58.667969 58.667969-58.667969h21.332031c8.832031 0 16 7.167969 16 16s-7.167969 16-16 16h-21.332031c-14.699219 0-26.667969 11.96875-26.667969 26.667969v21.332031c0 8.832031-7.167969 16-16 16zm0 0" data-original="#000000" class="active-path" data-old_color="#FCF5F5" fill="#FFFEFE"></path><path d="m346.667969 32h-96c-8.832031 0-16-7.167969-16-16s7.167969-16 16-16h96c8.832031 0 16 7.167969 16 16s-7.167969 16-16 16zm0 0" data-original="#000000" class="active-path" data-old_color="#FCF5F5" fill="#FFFEFE"></path><path d="m453.332031 426.667969h-21.332031c-8.832031 0-16-7.167969-16-16s7.167969-16 16-16h21.332031c14.699219 0 26.667969-11.96875 26.667969-26.667969v-21.332031c0-8.832031 7.167969-16 16-16s16 7.167969 16 16v21.332031c0 32.363281-26.304688 58.667969-58.667969 58.667969zm0 0" data-original="#000000" class="active-path" data-old_color="#FCF5F5" fill="#FFFEFE"></path><path d="m496 277.332031c-8.832031 0-16-7.167969-16-16v-96c0-8.832031 7.167969-16 16-16s16 7.167969 16 16v96c0 8.832031-7.167969 16-16 16zm0 0" data-original="#000000" class="active-path" data-old_color="#FCF5F5" fill="#FFFEFE"></path></g></svg> 