<?xml version="1.0" encoding="UTF-8"?> <!-- Generator: Adobe Illustrator 16.0.0, SVG Export Plug-In . SVG Version: 6.00 Build 0) --> <svg xmlns="http://www.w3.org/2000/svg" xmlns:xlink="http://www.w3.org/1999/xlink" id="Layer_1" x="0px" y="0px" width="486.492px" height="390.339px" viewBox="0 0 486.492 390.339" xml:space="preserve"> <path fill="#369647" d="M286.789,10.336c-15.898,0-30.976,1.919-45.778,6.03c78.399,20.285,136.787,90.735,138.158,174.617v7.127 c-1.919,49.342-43.037,88.815-92.38,88.815c-16.721,0-32.62-4.386-45.778-12.335c-27.686-15.899-46.052-45.505-46.052-80.045 c0-34.539,18.64-63.596,45.778-80.043c-13.432-7.95-29.057-12.336-45.778-12.336c-49.891,0-90.187,39.474-91.832,88.816v7.127 c1.371,84.43,59.759,154.879,138.158,174.616c14.803,3.837,30.153,6.03,45.778,6.03C388.763,378.757,471,296.246,471,194.82 C471,92.847,388.489,10.336,286.789,10.336L286.789,10.336z"></path> <path fill="#AFD136" d="M378.62,190.982c-1.37-84.43-59.759-154.879-138.157-174.616c-14.803-3.838-30.154-6.03-45.779-6.03 c-101.7,0-184.21,82.511-184.21,184.21c0,101.7,82.511,183.937,183.937,183.937c15.899,0,30.976-1.919,45.778-6.03 c-77.851-20.285-136.239-90.187-137.609-174.616v-7.127c1.918-49.343,42.489-88.816,91.831-88.816 c16.721,0,32.621,4.386,45.778,12.336c27.687,15.899,45.778,45.504,45.778,80.044c0,34.539-18.641,63.597-45.778,80.044 c13.706,7.401,29.605,12.335,46.327,12.335c49.89,0,90.187-39.474,91.831-88.815v-3.563 C378.62,193.45,378.62,192.079,378.62,190.982z"></path> <linearGradient id="SVGID_1_" gradientUnits="userSpaceOnUse" x1="-15.7847" y1="529.96" x2="-15.7847" y2="604.3359" gradientTransform="matrix(4.9342 0 0 4.9342 272.4297 -2603.5352)"> <stop offset="0" style="stop-color:#010101;stop-opacity:0.6"></stop> <stop offset="0.6" style="stop-color:#010101;stop-opacity:0.1"></stop> </linearGradient> <path opacity="0.15" fill="url(#SVGID_1_)" d="M378.62,190.982 c-1.37-84.43-59.759-154.879-138.157-174.616c-14.803-3.838-30.154-6.03-45.779-6.03c-101.7,0-184.21,82.511-184.21,184.21 c0,101.7,82.511,183.937,183.937,183.937c15.899,0,30.976-1.919,45.778-6.03c-77.851-20.285-136.239-90.187-137.609-174.616v-7.127 c1.918-49.343,42.489-88.816,91.831-88.816c16.721,0,32.621,4.386,45.778,12.336c27.687,15.899,45.778,45.504,45.778,80.044 c0,34.539-18.641,63.597-45.778,80.044c13.706,7.401,29.605,12.335,46.327,12.335c49.89,0,90.187-39.474,91.831-88.815v-3.563 C378.62,193.45,378.62,192.079,378.62,190.982z"></path> <linearGradient id="SVGID_2_" gradientUnits="userSpaceOnUse" x1="2.9658" y1="603.9824" x2="2.9658" y2="529.6724" gradientTransform="matrix(4.9342 0 0 4.9342 272.4297 -2603.5352)"> <stop offset="0" style="stop-color:#010101;stop-opacity:0.6"></stop> <stop offset="0.6" style="stop-color:#010101;stop-opacity:0.1"></stop> </linearGradient> <path opacity="0.15" fill="url(#SVGID_2_)" d="M286.789,10.336c-15.898,0-30.976,1.919-45.778,6.03 c78.399,20.285,136.787,90.735,138.158,174.617v7.127c-1.919,49.342-43.037,88.815-92.38,88.815 c-16.721,0-32.62-4.386-45.778-12.335c-27.686-15.899-46.052-45.505-46.052-80.045c0-34.539,18.64-63.596,45.778-80.043 c-13.432-7.95-29.057-12.336-45.778-12.336c-49.891,0-90.187,39.474-91.832,88.816v7.127 c1.371,84.43,59.759,154.879,138.158,174.616c14.803,3.837,30.153,6.03,45.778,6.03C388.763,378.757,471,296.246,471,194.82 C471,92.847,388.489,10.336,286.789,10.336L286.789,10.336z"></path> <linearGradient id="SVGID_3_" gradientUnits="userSpaceOnUse" x1="-25.293" y1="574.1152" x2="-12.63" y2="614.8342" gradientTransform="matrix(4.9342 0 0 4.9342 272.4297 -2603.5352)"> <stop offset="0" style="stop-color:#010101;stop-opacity:0.5"></stop> <stop offset="0.75" style="stop-color:#010101;stop-opacity:0.03"></stop> </linearGradient> <path opacity="0.4" fill="url(#SVGID_3_)" d="M240.463,372.727 c-77.851-20.285-136.239-90.187-137.61-174.616v-0.549v1.371c1.097,71.546,26.59,135.143,66.612,178.18 c8.498,1.097,16.722,1.919,25.219,1.919C210.309,378.482,226.208,376.563,240.463,372.727z"></path> <linearGradient id="SVGID_4_" gradientUnits="userSpaceOnUse" x1="-32.8525" y1="557.7725" x2="3.7405" y2="557.7725" gradientTransform="matrix(4.9342 0 0 4.9342 272.4297 -2603.5352)"> <stop offset="0" style="stop-color:#010101;stop-opacity:0.9"></stop> <stop offset="0.6" style="stop-color:#010101;stop-opacity:0.1"></stop> </linearGradient> <path opacity="0.25" fill="url(#SVGID_4_)" d="M103.675,191.531 c14.254-47.424,63.597-75.11,112.116-61.678c1.371,0.548,3.564,1.097,4.934,1.37c6.031-6.305,12.884-11.787,20.285-16.173 c-13.432-7.95-29.057-12.336-45.778-12.336C145.342,102.715,105.046,142.188,103.675,191.531l-0.274,3.015 C102.853,193.45,103.127,192.354,103.675,191.531L103.675,191.531z"></path> </svg> 