<?xml version="1.0" encoding="UTF-8"?> <svg xmlns="http://www.w3.org/2000/svg" viewBox="0 0 35 35" width="80" height="80"><defs><style>.cls-1{fill:#6079ad}.cls-2{fill:#d6d3c9}.cls-3{fill:#fdb701;opacity:.5;isolation:isolate}.cls-4{fill:#aeaaa1}.cls-5{fill:#667a9f}.cls-6{fill:#405988}.cls-7{fill:#3b527f}.cls-8{fill:#dfddd5}.cls-9{fill:#c6c3b8}.cls-10{fill:#d2cfc4}.cls-11{fill:#f5f2e6}.cls-12{fill:#f1eddc}.cls-13{fill:#e3dfcf}</style></defs><path class="cls-1" d="M14.82 20.32a3.71 3.71 0 0 0 .93 2.14c.8.7-.64 1.45-1.66 1.16S13 20.32 13 20.32z"></path><path class="cls-2" d="M15.13 27.2l-.71-5.5-5.49 1.38 2.35 5.4c.3.85 1.49 1 2.55.62a1.92 1.92 0 0 0 1.3-1.9z"></path><path class="cls-3" d="M10.53 17.13a4 4 0 0 0-2 1.31h5.18a2.75 2.75 0 0 0-3.18-1.31z"></path><path class="cls-4" d="M14.17 19.72a3.38 3.38 0 0 0-.44-1.29H8.55a2.7 2.7 0 0 0-.49 2.64l.87 2 5.49-1.39z"></path><path class="cls-5" d="M14.33 11.65H7.87A3.92 3.92 0 0 0 4 14.92h10.33v-3.27z"></path><path class="cls-6" d="M14.33 14.92H4a3.93 3.93 0 0 0-.06.64V17a3.92 3.92 0 0 0 .11.91h10.28z"></path><path class="cls-7" d="M7.87 20.94h6.46v-3H4.06a3.92 3.92 0 0 0 3.81 3z"></path><path class="cls-8" d="M31 10.8V5.72h-1.7c-.09 6-15 5.93-15 5.93v3.27s13.27-.01 16.7-4.12z"></path><path class="cls-9" d="M14.33 17.93v3s14.86 0 15 6.21h.38v-6.23c-4.71-2.97-15.38-2.98-15.38-2.98z"></path><path class="cls-10" d="M29.68 11.94c-4.71 3-15.35 3-15.35 3v3s10.65 0 15.35 3v-9zm.44 9.27l-.1-.07zm.43.35l-.17-.14zm.18.16c.11.11.22.22.32.34a4.54 4.54 0 0 0-.32-.34z"></path><path class="cls-11" d="M30.38 21.41l-.27-.2zm-.38-.27l-.34-.23zm-.32-15.42v6.22A5.91 5.91 0 0 0 31 10.8V5.72zm.87 15.84l.18.16z"></path><path class="cls-12" d="M29.68 11.94v9l.34.23.1.07.27.2.17.14.18.16a4.52 4.52 0 0 1 .32.34V10.8a5.91 5.91 0 0 1-1.38 1.14z"></path><path class="cls-13" d="M29.68 20.91v6.24H31v-5.1a5.91 5.91 0 0 0-1.32-1.14z"></path><path class="cls-13" d="M29.68 20.91h1.37v1.28h-1.37z"></path><path class="cls-11" d="M29.68 5.72h1.37v6.22h-1.37z"></path></svg> 