<?xml version="1.0" encoding="UTF-8"?> <!-- Generator: Adobe Illustrator 22.1.0, SVG Export Plug-In . SVG Version: 6.00 Build 0) --> <svg xmlns="http://www.w3.org/2000/svg" xmlns:xlink="http://www.w3.org/1999/xlink" version="1.1" id="Layer_1" x="0px" y="0px" width="74" height="21" viewBox="0 0 74 21" style="enable-background:new 0 0 74 21;" xml:space="preserve"> <style type="text/css"> .st0{opacity:0.7;} .st1{fill:#35495E;} </style> <g class="st0"> <path class="st1" d="M41.4,4.9c-0.2,0.2-0.5,0.5-0.7,0.7l-1,1h2.9v1.2h-4.7V7.2l1.6-2c0.3-0.3,0.6-0.6,0.7-0.8 c0.2-0.2,0.4-0.5,0.5-0.7c0.1-0.2,0.7-0.8,0.7-1.5c-0.3-0.8-1-0.9-1.5-0.8c-0.5,0-1,0.6-1.1,1.2c0,0-0.8-0.1-1-0.2 c0-0.2,0.4-1.2,1.2-1.7c0.4-0.2,0.6-0.3,1.1-0.3c0.3,0,0.6,0,0.9,0.1c0.3,0.1,0.5,0.2,0.7,0.4c0.2,0.2,0.5,0.4,0.6,0.6 c0.2,0.3,0.3,0.7,0.3,1c0,0.8-0.6,1.5-0.7,1.7C41.8,4.5,41.6,4.7,41.4,4.9z M35.9,20.8c-5.6,0-10.1-4.6-10.1-10.2 c0-5.6,4.5-10.2,10.1-10.2v3.6c-3.6,0-6.5,2.9-6.5,6.6c0,3.6,2.9,6.6,6.5,6.6c2.9,0,5.3-1.9,6.2-4.4c-1.8,0-4.2,0-4.2,0V9 c0,0,7.7,0,8,0c0.1,0.5,0.1,1.1,0.1,1.6C46.1,16.3,41.5,20.8,35.9,20.8z"></path> </g> </svg> 