<?xml version="1.0" encoding="UTF-8"?> <svg xmlns="http://www.w3.org/2000/svg" width="95" height="21" viewBox="0 0 95 21" fill="none"><g opacity="0.7"><path d="M0.811035 7.85664H9.42702H14.6593V2.67139L0.811035 7.85664Z" fill="#35495E"></path><path d="M14.6592 2.67134V20.9999L21.2074 0.227539L14.6592 2.67134Z" fill="#35495E"></path><path d="M14.6593 7.85645H9.427L14.6593 20.9841V7.85645Z" fill="#35495E"></path><path d="M0.811035 7.85645L10.7742 11.2245L9.42702 7.85645H0.811035Z" fill="#35495E"></path><path d="M32.5492 16.1599C32.4709 16.2383 32.3456 16.3323 32.1732 16.4419C32.0009 16.5516 31.7659 16.6769 31.484 16.7866C31.202 16.8962 30.8574 17.0059 30.4344 17.0842C30.0271 17.1625 29.5571 17.2095 29.0245 17.2095C28.0062 17.2095 27.1133 17.0372 26.3614 16.7239C25.6094 16.3949 24.9985 15.9406 24.5129 15.3453C24.0272 14.7501 23.6669 14.0608 23.4476 13.2618C23.2126 12.4629 23.103 11.57 23.103 10.6144C23.103 9.6588 23.2283 8.76587 23.4789 7.95127C23.7296 7.13666 24.0899 6.43172 24.5912 5.83643C25.0768 5.24115 25.7034 4.77119 26.4397 4.44221C27.176 4.11324 28.0532 3.94092 29.0558 3.94092C29.5415 3.94092 29.9958 3.98791 30.3874 4.06624C30.779 4.16023 31.1393 4.25422 31.437 4.37955C31.7346 4.50487 31.9853 4.6302 32.1732 4.75552C32.3769 4.88084 32.5179 5.00616 32.6119 5.08449C32.7215 5.17848 32.8312 5.30381 32.9095 5.4448C32.9878 5.58579 33.0348 5.74244 33.0348 5.8991C33.0348 6.14974 32.9409 6.40039 32.7529 6.65103C32.5649 6.90168 32.3612 7.13666 32.1263 7.35598C31.9696 7.19932 31.7973 7.04267 31.6093 6.88601C31.4213 6.72936 31.202 6.58837 30.967 6.46305C30.732 6.33773 30.4657 6.24374 30.1681 6.16541C29.8704 6.08708 29.5415 6.04008 29.1655 6.04008C28.5232 6.04008 27.9749 6.16541 27.5363 6.43172C27.0976 6.69803 26.753 7.027 26.4867 7.44997C26.2204 7.87294 26.0324 8.3429 25.9227 8.87552C25.8131 9.40815 25.7504 9.95644 25.7504 10.5204C25.7504 11.1157 25.8131 11.6796 25.9227 12.2279C26.0324 12.7762 26.2361 13.2462 26.518 13.6691C26.8 14.0921 27.1603 14.4211 27.6146 14.6717C28.0689 14.9224 28.6172 15.0477 29.2908 15.0477C29.6511 15.0477 29.9644 15.0007 30.2621 14.9224C30.5597 14.8284 30.826 14.7187 31.0453 14.5934C31.2803 14.4681 31.4683 14.3271 31.6406 14.2018C31.8129 14.0608 31.9539 13.9355 32.0636 13.8415C32.1419 13.9355 32.2202 14.0451 32.3299 14.1704C32.4396 14.2958 32.5336 14.4367 32.6119 14.5621C32.7059 14.7031 32.7685 14.844 32.8469 14.985C32.9095 15.126 32.9409 15.2513 32.9409 15.361C32.9409 15.5333 32.9095 15.6587 32.8469 15.784C32.7842 15.8936 32.6745 16.019 32.5492 16.1599ZM42.3244 14.7031C42.3244 15.7056 42.4654 16.4419 42.7631 16.8962C42.5281 16.9902 42.3244 17.0529 42.1208 17.0842C41.9171 17.1155 41.7135 17.1469 41.4942 17.1469C41.0399 17.1469 40.6952 17.0529 40.4603 16.8806C40.2253 16.7082 40.0686 16.4419 40.006 16.1129C39.724 16.4106 39.3637 16.6612 38.8937 16.8649C38.4394 17.0685 37.8755 17.1625 37.2175 17.1625C36.8729 17.1625 36.5282 17.1155 36.1836 17.0215C35.839 16.9275 35.5256 16.7709 35.2437 16.5516C34.9617 16.3323 34.7424 16.0503 34.5544 15.69C34.3821 15.3297 34.2881 14.891 34.2881 14.3741C34.2881 13.7318 34.4447 13.1992 34.758 12.7919C35.0714 12.3846 35.463 12.0713 35.9329 11.8363C36.4029 11.6013 36.9199 11.4447 37.4525 11.3507C38.0008 11.2567 38.5021 11.2097 38.9564 11.1783C39.113 11.1627 39.254 11.1627 39.4107 11.1627H39.818V10.818C39.818 10.3324 39.6926 9.98777 39.4263 9.76845C39.16 9.5648 38.7371 9.45515 38.1574 9.45515C37.6091 9.45515 37.1235 9.54914 36.7006 9.72146C36.2776 9.89378 35.8546 10.0974 35.4473 10.3324C35.275 10.1131 35.1183 9.87811 35.0244 9.6118C34.9147 9.34549 34.8677 9.1575 34.8677 9.03218C34.8677 8.85986 34.9617 8.68754 35.1653 8.51522C35.369 8.3429 35.6353 8.20191 35.9799 8.06092C36.3246 7.91993 36.7162 7.82594 37.1705 7.73195C37.6091 7.65362 38.0791 7.60662 38.5804 7.60662C39.2697 7.60662 39.8493 7.66929 40.3193 7.81028C40.7892 7.95127 41.1809 8.17058 41.4785 8.45256C41.7761 8.7502 41.9955 9.1105 42.1208 9.54914C42.2461 9.98777 42.3088 10.5047 42.3088 11.0843L42.3244 14.7031ZM39.8806 12.4942H39.6143C39.5203 12.4942 39.442 12.4942 39.348 12.5099C39.0347 12.5412 38.7214 12.5726 38.4081 12.6196C38.0948 12.6666 37.8128 12.7605 37.5778 12.8859C37.3428 13.0112 37.1392 13.1835 36.9825 13.3872C36.8259 13.5908 36.7476 13.8571 36.7476 14.1704C36.7476 14.5307 36.8415 14.8284 37.0452 15.079C37.2488 15.3297 37.5935 15.455 38.0791 15.455C38.3141 15.455 38.5491 15.4237 38.7684 15.361C38.9877 15.2983 39.1757 15.22 39.348 15.1104C39.5203 15.0007 39.6457 14.891 39.7396 14.7814C39.8336 14.6561 39.8806 14.5464 39.8806 14.4524V12.4942ZM47.0711 8.73454C47.2747 8.49956 47.588 8.24891 48.0267 7.99826C48.4653 7.74761 48.9979 7.62229 49.6559 7.62229C50.1258 7.62229 50.5801 7.70062 51.0031 7.85727C51.426 8.01393 51.802 8.28024 52.131 8.62488C52.46 8.98518 52.7263 9.45514 52.9143 10.0348C53.1179 10.6144 53.2119 11.335 53.2119 12.1966C53.2119 13.1835 53.1023 14.0138 52.8673 14.6561C52.6323 15.2983 52.3503 15.8153 51.99 16.1756C51.6297 16.5516 51.2224 16.8179 50.7838 16.9745C50.3451 17.1312 49.8908 17.2095 49.4522 17.2095C49.0919 17.2095 48.7629 17.1625 48.4966 17.0842C48.2303 17.0059 47.9953 16.9119 47.8073 16.8022C47.6194 16.7082 47.4784 16.5986 47.3687 16.5046C47.2747 16.4106 47.1964 16.3323 47.1807 16.3009V21.0006H44.5803V7.90427C44.6429 7.8886 44.7212 7.87294 44.8152 7.87294C44.8936 7.85727 44.9876 7.85727 45.0816 7.84161C45.1912 7.84161 45.3009 7.82594 45.4419 7.82594C45.8648 7.82594 46.2251 7.8886 46.5228 8.02959C46.8048 8.17058 46.9927 8.40556 47.0711 8.73454ZM50.5175 12.2593C50.5175 11.8833 50.4861 11.523 50.4235 11.194C50.3608 10.865 50.2511 10.5831 50.1102 10.3324C49.9692 10.0974 49.7655 9.90944 49.5149 9.76845C49.2642 9.62747 48.9666 9.5648 48.6063 9.5648C48.0737 9.5648 47.6977 9.67446 47.494 9.86244C47.2904 10.0661 47.1807 10.2854 47.1807 10.5361V14.5934C47.2747 14.7031 47.4627 14.8127 47.729 14.9537C47.9953 15.0947 48.293 15.1574 48.6376 15.1574C49.2799 15.1574 49.7498 14.9067 50.0632 14.3898C50.3608 13.8885 50.5175 13.1835 50.5175 12.2593ZM55.2171 15.549C55.1231 15.2983 55.0761 15.032 55.0448 14.7501C55.0134 14.4681 55.0134 14.1861 55.0134 13.9041V5.05316C55.1074 5.0375 55.2014 5.02183 55.2954 5.02183C55.3894 5.00617 55.4834 5.00617 55.5774 4.9905C55.6714 4.9905 55.781 4.97484 55.875 4.97484C56.0787 4.97484 56.2823 4.9905 56.486 5.0375C56.6896 5.06883 56.8776 5.14716 57.0343 5.27248C57.2066 5.38214 57.3319 5.53879 57.4416 5.74244C57.5356 5.94609 57.5982 6.19674 57.5982 6.51005V7.87294H60.277V9.79978H57.6139V13.8728C57.6139 14.7657 57.9742 15.2044 58.6948 15.2044C58.8671 15.2044 59.0394 15.173 59.1961 15.126C59.3528 15.0634 59.4937 15.0007 59.6191 14.938C59.7444 14.8754 59.854 14.797 59.948 14.7187C60.042 14.6404 60.1047 14.5777 60.1517 14.5464C60.3397 14.8284 60.4963 15.0634 60.5903 15.267C60.6843 15.4707 60.747 15.6586 60.747 15.8466C60.747 16.019 60.6843 16.1756 60.5433 16.3323C60.4023 16.4889 60.2144 16.6456 59.9794 16.7709C59.7444 16.9119 59.4467 17.0215 59.1021 17.0999C58.7575 17.1782 58.3815 17.2252 57.9742 17.2252C57.1909 17.2252 56.5643 17.0685 56.1257 16.7709C55.7184 16.4419 55.4051 16.0503 55.2171 15.549ZM66.8565 15.2983C67.1698 15.2983 67.4518 15.267 67.7024 15.1887C67.9374 15.126 68.1567 15.032 68.3604 14.938C68.5484 14.844 68.7207 14.7187 68.8617 14.6091C69.0027 14.4837 69.128 14.3741 69.2376 14.2801C69.3943 14.4681 69.5509 14.7187 69.7233 15.0164C69.8956 15.314 69.9739 15.5647 69.9739 15.7526C69.9739 16.0346 69.8173 16.2853 69.5039 16.5202C69.2376 16.7239 68.8617 16.8962 68.3604 17.0529C67.8747 17.1939 67.2951 17.2722 66.6372 17.2722C66.0419 17.2722 65.4466 17.1939 64.867 17.0372C64.2874 16.8806 63.7704 16.6142 63.3161 16.2383C62.8618 15.8623 62.5015 15.3453 62.2195 14.7031C61.9375 14.0608 61.7966 13.2462 61.7966 12.2749C61.7966 11.476 61.9219 10.7867 62.1725 10.2071C62.4232 9.62746 62.7522 9.14183 63.1595 8.76586C63.5668 8.38989 64.0367 8.10792 64.5693 7.91993C65.0863 7.74761 65.6189 7.65362 66.1672 7.65362C66.8722 7.65362 67.4831 7.76328 67.9844 7.98259C68.4857 8.20191 68.8773 8.49955 69.1906 8.87552C69.5039 9.25149 69.7233 9.67446 69.8643 10.1601C70.0052 10.6457 70.0679 11.147 70.0679 11.6796V11.9459C70.0679 12.0556 70.0679 12.1496 70.0522 12.2749C70.0522 12.3846 70.0366 12.4942 70.0366 12.6039C70.0366 12.7135 70.0209 12.7919 70.0052 12.8545H64.3814C64.4284 13.5595 64.6477 14.1391 65.0393 14.6091C65.4153 15.0634 66.0262 15.2983 66.8565 15.2983ZM67.7338 11.429C67.7338 10.818 67.6084 10.3167 67.3734 9.94077C67.1385 9.5648 66.7155 9.36115 66.1045 9.36115C65.5719 9.36115 65.1646 9.54914 64.8513 9.90944C64.538 10.2697 64.3814 10.771 64.3814 11.429H67.7338ZM74.5952 8.78153C74.6735 8.67187 74.7675 8.54655 74.8928 8.40556C75.0182 8.26457 75.1748 8.13925 75.3628 8.02959C75.5508 7.91993 75.7545 7.82594 75.9738 7.74761C76.1931 7.66929 76.4281 7.63796 76.6944 7.63796C76.851 7.63796 77.0077 7.65362 77.18 7.66929C77.3523 7.70062 77.509 7.74762 77.65 7.81028C77.791 7.87294 77.9163 7.96693 78.0103 8.09225C78.1043 8.21758 78.1513 8.35856 78.1513 8.53088C78.1513 8.81286 78.0886 9.12617 77.9476 9.48647C77.8066 9.84678 77.6656 10.1601 77.5246 10.4107C77.3053 10.2384 77.086 10.0974 76.8824 10.0034C76.663 9.90944 76.4124 9.86244 76.1148 9.86244C75.7231 9.86244 75.3941 9.9721 75.1278 10.2071C74.8615 10.4421 74.7205 10.7084 74.7205 11.0373V17.2095H72.1201V7.8886C72.1827 7.87294 72.2611 7.85727 72.3551 7.85727C72.4334 7.84161 72.5274 7.8416 72.6214 7.82594C72.7154 7.82594 72.8407 7.81028 72.9817 7.81028C73.389 7.81028 73.7493 7.8886 74.0469 8.04526C74.3289 8.21758 74.5169 8.45256 74.5952 8.78153ZM81.9736 8.78153C82.0519 8.67187 82.1459 8.54655 82.2713 8.40556C82.3966 8.26457 82.5532 8.13925 82.7412 8.02959C82.9292 7.91993 83.1329 7.82594 83.3522 7.74761C83.5715 7.66929 83.8065 7.63796 84.0728 7.63796C84.2294 7.63796 84.3861 7.65362 84.5584 7.66929C84.7307 7.70062 84.8874 7.74762 85.0284 7.81028C85.1694 7.87294 85.2947 7.96693 85.3887 8.09225C85.4827 8.21758 85.5297 8.35856 85.5297 8.53088C85.5297 8.81286 85.467 9.12617 85.326 9.48647C85.185 9.84678 85.044 10.1601 84.9031 10.4107C84.6837 10.2384 84.4644 10.0974 84.2608 10.0034C84.0415 9.90944 83.7908 9.86244 83.4932 9.86244C83.1015 9.86244 82.7726 9.9721 82.5062 10.2071C82.2399 10.4421 82.0989 10.7084 82.0989 11.0373V17.2095H79.4985V7.8886C79.5611 7.87294 79.6395 7.85727 79.7335 7.85727C79.8118 7.84161 79.9058 7.8416 79.9998 7.82594C80.0938 7.82594 80.2191 7.81028 80.3601 7.81028C80.7674 7.81028 81.1277 7.8886 81.4253 8.04526C81.7073 8.21758 81.8953 8.45256 81.9736 8.78153ZM94.365 14.7031C94.365 15.7056 94.506 16.4419 94.8036 16.8962C94.5686 16.9902 94.365 17.0529 94.1613 17.0842C93.9577 17.1155 93.754 17.1469 93.5347 17.1469C93.0804 17.1469 92.7358 17.0529 92.5008 16.8806C92.2658 16.7082 92.1091 16.4419 92.0465 16.1129C91.7645 16.4106 91.4042 16.6612 90.9342 16.8649C90.4799 17.0685 89.916 17.1625 89.258 17.1625C88.9134 17.1625 88.5688 17.1155 88.2241 17.0215C87.8795 16.9275 87.5662 16.7709 87.2842 16.5516C87.0022 16.3323 86.7829 16.0503 86.5949 15.69C86.4226 15.3297 86.3286 14.891 86.3286 14.3741C86.3286 13.7318 86.4853 13.1992 86.7986 12.7919C87.1119 12.3846 87.5035 12.0713 87.9735 11.8363C88.4434 11.6013 88.9604 11.4447 89.493 11.3507C90.0413 11.2567 90.5426 11.2097 90.9969 11.1783C91.1536 11.1627 91.2945 11.1627 91.4512 11.1627H91.8585V10.818C91.8585 10.3324 91.7332 9.98777 91.4669 9.76845C91.2006 9.5648 90.7776 9.45515 90.198 9.45515C89.6497 9.45515 89.1641 9.54914 88.7411 9.72146C88.3181 9.89378 87.8952 10.0974 87.4879 10.3324C87.3155 10.1131 87.1589 9.87811 87.0649 9.6118C86.9552 9.34549 86.9082 9.1575 86.9082 9.03218C86.9082 8.85986 87.0022 8.68754 87.2059 8.51522C87.4095 8.3429 87.6758 8.20191 88.0205 8.06092C88.3651 7.91993 88.7568 7.82594 89.2111 7.73195C89.6497 7.65362 90.1196 7.60662 90.6209 7.60662C91.3102 7.60662 91.8898 7.66929 92.3598 7.81028C92.8298 7.95127 93.2214 8.17058 93.519 8.45256C93.8167 8.7502 94.036 9.1105 94.1613 9.54914C94.2866 9.98777 94.3493 10.5047 94.3493 11.0843L94.365 14.7031ZM91.9212 12.4942H91.6549C91.5609 12.4942 91.4825 12.4942 91.3885 12.5099C91.0752 12.5412 90.7619 12.5726 90.4486 12.6196C90.1353 12.6666 89.8533 12.7605 89.6183 12.8859C89.3834 13.0112 89.1797 13.1835 89.0231 13.3872C88.8664 13.5908 88.7881 13.8571 88.7881 14.1704C88.7881 14.5307 88.8821 14.8284 89.0857 15.079C89.2894 15.3297 89.634 15.455 90.1196 15.455C90.3546 15.455 90.5896 15.4237 90.8089 15.361C91.0282 15.2983 91.2162 15.22 91.3885 15.1104C91.5609 15.0007 91.6862 14.891 91.7802 14.7814C91.8742 14.6561 91.9212 14.5464 91.9212 14.4524V12.4942Z" fill="#35495E"></path></g></svg> 