<?xml version="1.0" encoding="UTF-8"?> <!-- Generator: Adobe Illustrator 16.0.0, SVG Export Plug-In . SVG Version: 6.00 Build 0) --> <svg xmlns="http://www.w3.org/2000/svg" xmlns:xlink="http://www.w3.org/1999/xlink" id="Layer_1" x="0px" y="0px" width="80px" height="80px" viewBox="0 0 80 80" xml:space="preserve"> <path fill="#96C676" d="M60.395,20.689c-0.221-0.021-4.933-0.371-4.933-0.371s-3.275-3.266-3.633-3.625 c-0.359-0.361-1.063-0.253-1.335-0.17c-0.039,0.011-0.715,0.222-1.832,0.566c-1.094-3.162-3.022-6.068-6.416-6.068 c-0.094,0-0.19,0.004-0.288,0.01c-0.963-1.281-2.16-1.841-3.193-1.841c-7.907,0-11.686,9.936-12.869,14.985 c-3.074,0.955-5.258,1.635-5.534,1.725c-1.718,0.541-1.771,0.595-1.994,2.219c-0.172,1.229-4.66,36.109-4.66,36.109l34.968,6.583 l18.948-4.121c0,0-6.65-45.19-6.692-45.501C60.89,20.879,60.618,20.707,60.395,20.689z M41.697,18.913 c0,0.119-0.001,0.23-0.001,0.343c-1.925,0.601-4.013,1.25-6.111,1.903c1.177-4.563,3.382-6.769,5.311-7.602 C41.381,14.782,41.697,16.542,41.697,18.913z M38.544,11.322c0.346,0,0.688,0.116,1.018,0.345c-2.536,1.197-5.25,4.217-6.398,10.246 c-1.676,0.521-3.314,1.032-4.83,1.503C29.677,18.816,32.865,11.322,38.544,11.322z M39.908,38.194c0,0-2.046-1.099-4.554-1.099 c-3.68,0-3.866,2.321-3.866,2.904c0,3.19,8.273,4.414,8.273,11.884c0,5.88-3.707,9.663-8.712,9.663 c-6.002,0-9.074-3.755-9.074-3.755l1.607-5.335c0,0,3.155,2.723,5.821,2.723c1.737,0,2.445-1.377,2.445-2.383 c0-4.162-6.789-4.347-6.789-11.186c0-5.751,4.11-11.323,12.409-11.323c3.194,0,4.775,0.921,4.775,0.921L39.908,38.194z M43.771,18.611c0-0.21,0.002-0.417,0.002-0.643c0-1.963-0.273-3.545-0.708-4.799c1.749,0.218,2.914,2.22,3.664,4.521 C45.852,17.965,44.854,18.275,43.771,18.611z"></path> <path fill="#79B358" d="M60.395,20.689c-0.221-0.021-4.933-0.371-4.933-0.371s-3.275-3.266-3.633-3.625 c-0.359-0.361-1.063-0.253-1.335-0.17c-0.039,0.011-0.715,0.222-1.832,0.566c-1.094-3.162-3.022-6.068-6.416-6.068 c-0.094,0-0.19,0.004-0.288,0.01c-0.963-1.281-2.16-1.841-3.193-1.841c-7.907,0-9.859,9.936-11.042,14.985 c-3.073,0.955-5.432,6.209-5.71,6.298c-1.716,0.54-1.769,0.595-1.993,2.219c-0.173,1.228-6.311,31.536-6.311,31.536l34.968,6.583 l18.948-4.121c0,0-6.65-45.19-6.692-45.501C60.89,20.879,60.618,20.707,60.395,20.689z M41.697,18.913 c0,0.119-0.001,0.23-0.001,0.343c-1.925,0.601-4.013,1.25-6.111,1.903c1.177-4.563,3.382-6.769,5.311-7.602 C41.381,14.782,41.697,16.542,41.697,18.913z M38.544,11.322c0.346,0,0.688,0.116,1.018,0.345c-2.536,1.197-5.25,4.217-6.398,10.246 c-1.676,0.521-3.314,1.032-4.83,1.503C29.677,18.816,32.865,11.322,38.544,11.322z M39.908,38.194c0,0-2.046-1.099-4.554-1.099 c-3.68,0-3.866,2.321-3.866,2.904c0,3.19,8.273,4.414,8.273,11.884c0,5.88-3.707,9.663-8.712,9.663 c-6.002,0-9.074-3.755-9.074-3.755l1.607-5.335c0,0,3.155,2.723,5.821,2.723c1.737,0,2.445-1.377,2.445-2.383 c0-4.162-6.789-4.347-6.789-11.186c0-5.751,4.11-11.323,12.409-11.323c3.194,0,4.775,0.921,4.775,0.921L39.908,38.194z M43.771,18.611c0-0.21,0.002-0.417,0.002-0.643c0-1.963-0.273-3.545-0.708-4.799c1.749,0.218,2.914,2.22,3.664,4.521 C45.852,17.965,44.854,18.275,43.771,18.611z"></path> <path fill="#579441" d="M48.676,70.81l18.948-4.12c0,0-6.65-45.19-6.692-45.501c-0.042-0.311-0.313-0.481-0.537-0.499 c-0.221-0.021-4.933-0.371-4.933-0.371s-3.275-3.266-3.633-3.625c-0.192-0.193-0.479-0.249-0.75-0.25 c-0.718,1.219-0.57,3.532-0.57,3.532l-2.228,50.759L48.676,70.81z"></path> <path fill="#4C7B39" d="M42.246,11.022c-0.094,0-0.19,0.004-0.288,0.01c-0.963-1.281-2.16-1.841-3.193-1.841 c-7.875,0-11.657,9.857-12.855,14.923l2.443-0.758c1.352-4.602,4.538-12.034,10.192-12.034c0.346,0,0.688,0.116,1.018,0.345 c-2.529,1.193-5.237,4.203-6.389,10.197l2.427-0.749c1.18-4.535,3.376-6.729,5.299-7.558c0.483,1.226,0.801,2.984,0.801,5.355 c0,0.108,0,0.21-0.003,0.313l2.076-0.642c0-0.2,0.002-0.399,0.002-0.616c0-1.963-0.272-3.545-0.708-4.799 c1.743,0.217,2.908,2.209,3.656,4.501l1.936-0.601C47.562,13.917,45.634,11.022,42.246,11.022z"></path> <path fill="#4E833C" d="M56.253,20.378c-0.474-0.037-0.792-0.06-0.792-0.06s-3.274-3.266-3.634-3.625 c-0.191-0.193-0.478-0.249-0.748-0.25c-0.719,1.219-0.571,3.532-0.571,3.532L48.28,70.733l0.396,0.076l10.082-2.192L56.253,20.378z"></path> </svg> 