<?xml version="1.0" encoding="UTF-8"?> <svg xmlns="http://www.w3.org/2000/svg" xmlns:xlink="http://www.w3.org/1999/xlink" width="80px" height="80px" viewBox="0 0 80 80"><!-- Generator: Sketch 52.3 (67297) - http://www.bohemiancoding.com/sketch --><title>Group</title><desc>Created with Sketch.</desc><defs><circle id="path-1" cx="30" cy="30" r="30"></circle><filter x="-29.2%" y="-20.8%" width="158.3%" height="158.3%" id="filter-2"><feOffset dx="0" dy="5" in="SourceAlpha" result="shadowOffsetOuter1"></feOffset><feGaussianBlur stdDeviation="5" in="shadowOffsetOuter1" result="shadowBlurOuter1"></feGaussianBlur><feColorMatrix values="0 0 0 0 0.22745098 0 0 0 0 0.266666667 0 0 0 0 0.317647059 0 0 0 0.1 0" type="matrix" in="shadowBlurOuter1"></feColorMatrix></filter></defs><g id="Main" stroke="none" stroke-width="1" fill="none" fill-rule="evenodd"><g id="Company" transform="translate(-305.000000, -3967.000000)"><g id="Group-16" transform="translate(315.000000, 3972.000000)"><g id="Group"><g id="Group-8"><g id="Oval-9"><use fill="black" fill-opacity="1" filter="url(#filter-2)" xlink:href="#path-1"></use><use fill="#FFFFFF" fill-rule="evenodd" xlink:href="#path-1"></use></g></g><path d="M28.0537063,20.7202405 C26.9246758,19.59121 25.4526757,19.0203041 23.9742849,19.0000667 C23.3192342,18.9915458 22.9911763,19.8010393 23.4545048,20.2643678 L25.723217,22.53308 C26.2568436,23.0656415 26.5827713,23.6035287 24.9701749,25.2161251 L24.2405656,25.9457344 C22.7579143,27.4283857 22.0900821,27.2313379 21.5575206,26.6987764 L19.2643106,24.4055664 C18.8020472,23.943303 17.9968141,24.2681655 18.0000095,24.921086 C18.0074653,26.4175839 18.5805016,27.9108865 19.7223135,29.0526984 C21.3817753,30.7121602 23.7836278,31.169098 25.8574225,30.4330979 C26.2216946,30.304218 26.6285716,30.4299026 26.8959175,30.7100299 L36.9070094,41.2526182 C37.8368618,42.2314663 39.3919415,42.2517037 40.3473569,41.2962883 L40.382506,41.2611392 C41.3411168,40.3025284 41.3166189,38.741058 40.3281847,37.8122707 L29.7259495,27.8544349 C29.4458221,27.5913495 29.3190725,27.1866028 29.4458221,26.8244609 C30.1647802,24.757057 29.7046471,22.3711813 28.0537063,20.7202405 L28.0537063,20.7202405 Z M39.2332382,40.2322303 C38.8561846,40.6092839 38.2448039,40.6092839 37.8677504,40.2322303 C37.4906968,39.8551767 37.4906968,39.2437961 37.8677504,38.8667425 C38.2448039,38.4896889 38.8561846,38.4896889 39.2332382,38.8667425 C39.6102917,39.2437961 39.6102917,39.8551767 39.2332382,40.2322303 L39.2332382,40.2322303 Z" id="wrench" fill="#0067FF"></path></g></g></g></g></svg> 